<svg xmlns="http://www.w3.org/2000/svg" width="95.655" height="104.235" viewBox="0 0 95.655 104.235">
  <path id="mdi-fleur-de-lis" d="M50.328,2S34.552,12.254,34.552,27.636,45.069,53.272,45.069,73.78H39.81a50.023,50.023,0,0,0-5.259-20.509C24.034,32.763,3,43.017,3,58.4S13.517,73.78,13.517,73.78c0-15.381,18.405-15.381,18.405,0H24.034V84.034H42.44L34.552,94.289s5.259,5.127,10.517,0l5.259,10.254,5.259-10.254c5.259,5.127,10.517,0,10.517,0L58.215,84.034H76.621V73.78H68.733c0-15.381,18.405-15.381,18.405,0,0,0,10.517,0,10.517-15.381S76.621,32.763,66.1,53.272A50.023,50.023,0,0,0,60.845,73.78H55.586c0-20.509,10.517-30.763,10.517-46.144S50.328,2,50.328,2Z" transform="translate(-2.5 -1.404)" fill="#ffe600" stroke="#e0ca03" stroke-width="1"/>
</svg>
